<?xml version="1.0" encoding="UTF-8" standalone="no"?>
<svg
   xmlns:dc="http://purl.org/dc/elements/1.1/"
   xmlns:cc="http://creativecommons.org/ns#"
   xmlns:rdf="http://www.w3.org/1999/02/22-rdf-syntax-ns#"
   xmlns:svg="http://www.w3.org/2000/svg"
   xmlns="http://www.w3.org/2000/svg"
   xmlns:sodipodi="http://sodipodi.sourceforge.net/DTD/sodipodi-0.dtd"
   xmlns:inkscape="http://www.inkscape.org/namespaces/inkscape"
   sodipodi:docname="BRAZIL.svg"
   inkscape:version="1.0rc1 (09960d6, 2020-04-09)"
   id="svg8"
   version="1.1"
   viewBox="0 0 297 195"
   height="195mm"
   width="297mm">
  <defs
     id="defs2">
    <clipPath
       clipPathUnits="userSpaceOnUse"
       id="clipPath885">
      <path
         d="M 0,6 V 7084 H 9985 V 6 Z"
         id="path883"
         inkscape:connector-curvature="0" />
    </clipPath>
  </defs>
  <sodipodi:namedview
     inkscape:window-maximized="0"
     inkscape:window-y="23"
     inkscape:window-x="44"
     inkscape:window-height="755"
     inkscape:window-width="1236"
     showgrid="false"
     inkscape:document-rotation="0"
     inkscape:current-layer="layer1"
     inkscape:document-units="mm"
     inkscape:cy="560"
     inkscape:cx="400"
     inkscape:zoom="0.35"
     inkscape:pageshadow="2"
     inkscape:pageopacity="0.0"
     borderopacity="1.0"
     bordercolor="#666666"
     pagecolor="#ffffff"
     id="base" />
  <metadata
     id="metadata5">
    <rdf:RDF>
      <cc:Work
         rdf:about="">
        <dc:format>image/svg+xml</dc:format>
        <dc:type
           rdf:resource="http://purl.org/dc/dcmitype/StillImage" />
        <dc:title></dc:title>
      </cc:Work>
    </rdf:RDF>
  </metadata>
  <g
     id="layer1"
     inkscape:groupmode="layer"
     inkscape:label="Layer 1">
    <g
       clip-path="url(#clipPath885)"
       id="g881"
       transform="matrix(0.03527778,0,0,-0.03527778,-30.037948,218.70654)">
      <path
         inkscape:connector-curvature="0"
         id="path887"
         style="fill:#fddb0a;fill-opacity:1;fill-rule:evenodd;stroke:none"
         d="M 5030.04,813.203 9184.19,3499.96 5030.04,6186.71 875.891,3499.96 5030.04,813.203" />
      <path
         inkscape:connector-curvature="0"
         id="path889"
         style="fill:none;stroke:#fddb0a;stroke-width:10.01;stroke-linecap:round;stroke-linejoin:round;stroke-miterlimit:10;stroke-dasharray:none;stroke-opacity:1"
         d="M 5030.04,813.203 9184.19,3499.96 5030.04,6186.71 875.891,3499.96 5030.04,813.203" />
      <path
         inkscape:connector-curvature="0"
         id="path891"
         style="fill:#011963;fill-opacity:1;fill-rule:evenodd;stroke:none"
         d="m 6781.79,3499.96 -20.53,267.4 -61.11,261.14 -100.25,248.75 -137.05,230.52 -170.64,206.91 -200.21,178.43 -225.11,145.78 -244.73,109.71 -258.6,71.07 -266.42,30.76 -268,-10.28 -263.28,-51.06 -252.41,-90.65 -235.6,-128.12 -213.3,-162.59 -185.96,-193.23 -154.3,-219.36 -119,-240.35 -80.92,-255.69 -40.94,-265.05 v -268.19 l 40.94,-265.04 80.92,-255.69 119,-240.35 154.3,-219.36 185.96,-193.24 213.3,-162.58 235.6,-128.12 252.41,-90.65 263.28,-51.06 268,-10.27 266.42,30.75 258.6,71.07 244.73,109.71 225.11,145.77 200.21,178.44 170.64,206.9 137.05,230.54 100.25,248.74 61.11,261.14 20.53,267.4 v 0" />
      <path
         inkscape:connector-curvature="0"
         id="path893"
         style="fill:#ffffff;fill-opacity:1;fill-rule:evenodd;stroke:none"
         d="m 6741.75,3149.61 -359.48,270.58 -386.05,231.1 -408.29,189.04 -425.98,144.86 -438.9,99.06 -446.9,52.15 -449.91,4.67 -447.89,-42.88 -15.69,-25.61 -13.4,-26.87 -11,-27.94 -8.53,-28.8 -5.99,-29.42 -3.4,-29.84 -0.79,-30.02 1.84,-29.98 396.62,49.68 399.6,9.88 398.59,-30.01 393.61,-69.6 384.71,-108.5 371.98,-146.32 355.54,-182.67 335.55,-217.22 312.22,-249.59 12.69,27.22 11.58,27.71 10.46,28.14 9.32,28.55 8.16,28.9 6.99,29.21 5.81,29.46 4.62,29.67 2.31,-4.61" />
      <path
         inkscape:connector-curvature="0"
         id="path895"
         style="fill:none;stroke:#ffffff;stroke-width:10.01;stroke-linecap:round;stroke-linejoin:round;stroke-miterlimit:10;stroke-dasharray:none;stroke-opacity:1"
         d="m 6741.75,3149.61 -359.48,270.58 -386.05,231.1 -408.29,189.04 -425.98,144.86 -438.9,99.06 -446.9,52.15 -449.91,4.67 -447.89,-42.88 -15.69,-25.61 -13.4,-26.87 -11,-27.94 -8.53,-28.8 -5.99,-29.42 -3.4,-29.84 -0.79,-30.02 1.84,-29.98 396.62,49.68 399.6,9.88 398.59,-30.01 393.61,-69.6 384.71,-108.5 371.98,-146.32 355.54,-182.67 335.55,-217.22 312.22,-249.59 12.69,27.22 11.58,27.71 10.46,28.14 9.32,28.55 8.16,28.9 6.99,29.21 5.81,29.46 4.62,29.67" />
      <path
         inkscape:connector-curvature="0"
         id="path897"
         style="fill:#ffffff;fill-opacity:1;fill-rule:evenodd;stroke:none"
         d="m 3548.56,3780.24 h 150.15 l -121.48,-88.26 46.41,142.81 46.4,-142.81 -121.48,88.26 v 0" />
      <path
         inkscape:connector-curvature="0"
         id="path899"
         style="fill:none;stroke:#ffffff;stroke-width:10.01;stroke-linecap:round;stroke-linejoin:round;stroke-miterlimit:10;stroke-dasharray:none;stroke-opacity:1"
         d="m 3548.56,3780.24 h 150.15 l -121.48,-88.26 46.41,142.81 46.4,-142.81 -121.48,88.26" />
      <path
         inkscape:connector-curvature="0"
         id="path901"
         style="fill:#ffffff;fill-opacity:1;fill-rule:evenodd;stroke:none"
         d="m 3698.71,3099.56 h 150.15 l -121.47,-88.26 46.4,142.81 46.39,-142.81 -121.47,88.26 v 0" />
      <path
         inkscape:connector-curvature="0"
         id="path903"
         style="fill:none;stroke:#ffffff;stroke-width:10.01;stroke-linecap:round;stroke-linejoin:round;stroke-miterlimit:10;stroke-dasharray:none;stroke-opacity:1"
         d="m 3698.71,3099.56 h 150.15 l -121.47,-88.26 46.4,142.81 46.39,-142.81 -121.47,88.26" />
      <path
         inkscape:connector-curvature="0"
         id="path905"
         style="fill:#ffffff;fill-opacity:1;fill-rule:evenodd;stroke:none"
         d="m 3498.51,2939.4 h 125.13 l -101.23,-73.55 38.66,119.01 38.67,-119.01 -101.23,73.55" />
      <path
         inkscape:connector-curvature="0"
         id="path907"
         style="fill:none;stroke:#ffffff;stroke-width:10.01;stroke-linecap:round;stroke-linejoin:round;stroke-miterlimit:10;stroke-dasharray:none;stroke-opacity:1"
         d="m 3498.51,2939.4 h 125.13 l -101.23,-73.55 38.66,119.01 38.67,-119.01 -101.23,73.55" />
      <path
         inkscape:connector-curvature="0"
         id="path909"
         style="fill:#ffffff;fill-opacity:1;fill-rule:evenodd;stroke:none"
         d="m 3838.85,3199.66 h 70.07 l -56.69,-41.19 21.66,66.64 21.65,-66.64 -56.69,41.19 v 0" />
      <path
         inkscape:connector-curvature="0"
         id="path911"
         style="fill:none;stroke:#ffffff;stroke-width:10.01;stroke-linecap:round;stroke-linejoin:round;stroke-miterlimit:10;stroke-dasharray:none;stroke-opacity:1"
         d="m 3838.85,3199.66 h 70.07 l -56.69,-41.19 21.66,66.64 21.65,-66.64 -56.69,41.19" />
      <path
         inkscape:connector-curvature="0"
         id="path913"
         style="fill:#ffffff;fill-opacity:1;fill-rule:evenodd;stroke:none"
         d="m 4039.05,2919.38 h 125.13 l -101.23,-73.55 38.66,119.01 38.67,-119.01 -101.23,73.55 v 0" />
      <path
         inkscape:connector-curvature="0"
         id="path915"
         style="fill:none;stroke:#ffffff;stroke-width:10.01;stroke-linecap:round;stroke-linejoin:round;stroke-miterlimit:10;stroke-dasharray:none;stroke-opacity:1"
         d="m 4039.05,2919.38 h 125.13 l -101.23,-73.55 38.66,119.01 38.67,-119.01 -101.23,73.55" />
      <path
         inkscape:connector-curvature="0"
         id="path917"
         style="fill:#ffffff;fill-opacity:1;fill-rule:evenodd;stroke:none"
         d="m 4009.02,2719.18 h 100.1 l -80.98,-58.84 30.93,95.2 30.93,-95.2 -80.98,58.84 v 0" />
      <path
         inkscape:connector-curvature="0"
         id="path919"
         style="fill:none;stroke:#ffffff;stroke-width:10.01;stroke-linecap:round;stroke-linejoin:round;stroke-miterlimit:10;stroke-dasharray:none;stroke-opacity:1"
         d="m 4009.02,2719.18 h 100.1 l -80.98,-58.84 30.93,95.2 30.93,-95.2 -80.98,58.84" />
      <path
         inkscape:connector-curvature="0"
         id="path921"
         style="fill:#ffffff;fill-opacity:1;fill-rule:evenodd;stroke:none"
         d="m 5490.5,3980.44 h 150.15 l -121.47,-88.26 46.39,142.8 46.4,-142.8 -121.47,88.26 v 0" />
      <path
         inkscape:connector-curvature="0"
         id="path923"
         style="fill:none;stroke:#ffffff;stroke-width:10.01;stroke-linecap:round;stroke-linejoin:round;stroke-miterlimit:10;stroke-dasharray:none;stroke-opacity:1"
         d="m 5490.5,3980.44 h 150.15 l -121.47,-88.26 46.39,142.8 46.4,-142.8 -121.47,88.26" />
      <path
         inkscape:connector-curvature="0"
         id="path925"
         style="fill:#ffffff;fill-opacity:1;fill-rule:evenodd;stroke:none"
         d="m 6211.22,2889.35 h 150.15 l -121.48,-88.26 46.41,142.8 46.4,-142.8 -121.48,88.26 v 0" />
      <path
         inkscape:connector-curvature="0"
         id="path927"
         style="fill:none;stroke:#ffffff;stroke-width:10.01;stroke-linecap:round;stroke-linejoin:round;stroke-miterlimit:10;stroke-dasharray:none;stroke-opacity:1"
         d="m 6211.22,2889.35 h 150.15 l -121.48,-88.26 46.41,142.8 46.4,-142.8 -121.48,88.26" />
      <path
         inkscape:connector-curvature="0"
         id="path929"
         style="fill:#ffffff;fill-opacity:1;fill-rule:evenodd;stroke:none"
         d="m 6461.47,2869.33 h 100.1 l -80.98,-58.84 30.93,95.21 30.93,-95.21 -80.98,58.84 v 0" />
      <path
         inkscape:connector-curvature="0"
         id="path931"
         style="fill:none;stroke:#ffffff;stroke-width:10.01;stroke-linecap:round;stroke-linejoin:round;stroke-miterlimit:10;stroke-dasharray:none;stroke-opacity:1"
         d="m 6461.47,2869.33 h 100.1 l -80.98,-58.84 30.93,95.21 30.93,-95.21 -80.98,58.84" />
      <path
         inkscape:connector-curvature="0"
         id="path933"
         style="fill:#ffffff;fill-opacity:1;fill-rule:evenodd;stroke:none"
         d="m 6271.28,2729.19 h 125.13 l -101.23,-73.55 38.66,119 38.67,-119 -101.23,73.55 v 0" />
      <path
         inkscape:connector-curvature="0"
         id="path935"
         style="fill:none;stroke:#ffffff;stroke-width:10.01;stroke-linecap:round;stroke-linejoin:round;stroke-miterlimit:10;stroke-dasharray:none;stroke-opacity:1"
         d="m 6271.28,2729.19 h 125.13 l -101.23,-73.55 38.66,119 38.67,-119 -101.23,73.55" />
      <path
         inkscape:connector-curvature="0"
         id="path937"
         style="fill:#ffffff;fill-opacity:1;fill-rule:evenodd;stroke:none"
         d="m 5850.86,2338.8 h 125.12 l -101.22,-73.55 38.66,119 38.67,-119 -101.23,73.55 v 0" />
      <path
         inkscape:connector-curvature="0"
         id="path939"
         style="fill:none;stroke:#ffffff;stroke-width:10.01;stroke-linecap:round;stroke-linejoin:round;stroke-miterlimit:10;stroke-dasharray:none;stroke-opacity:1"
         d="m 5850.86,2338.8 h 125.12 l -101.22,-73.55 38.66,119 38.67,-119 -101.23,73.55" />
      <path
         inkscape:connector-curvature="0"
         id="path941"
         style="fill:#ffffff;fill-opacity:1;fill-rule:evenodd;stroke:none"
         d="m 5850.86,2148.61 h 100.1 l -80.98,-58.84 30.93,95.2 30.93,-95.2 -80.98,58.84 v 0" />
      <path
         inkscape:connector-curvature="0"
         id="path943"
         style="fill:none;stroke:#ffffff;stroke-width:10.01;stroke-linecap:round;stroke-linejoin:round;stroke-miterlimit:10;stroke-dasharray:none;stroke-opacity:1"
         d="m 5850.86,2148.61 h 100.1 l -80.98,-58.84 30.93,95.2 30.93,-95.2 -80.98,58.84" />
      <path
         inkscape:connector-curvature="0"
         id="path945"
         style="fill:#ffffff;fill-opacity:1;fill-rule:evenodd;stroke:none"
         d="m 6031.04,2508.97 h 100.1 l -80.98,-58.84 30.93,95.2 30.93,-95.2 -80.98,58.84" />
      <path
         inkscape:connector-curvature="0"
         id="path947"
         style="fill:none;stroke:#ffffff;stroke-width:10.01;stroke-linecap:round;stroke-linejoin:round;stroke-miterlimit:10;stroke-dasharray:none;stroke-opacity:1"
         d="m 6031.04,2508.97 h 100.1 l -80.98,-58.84 30.93,95.2 30.93,-95.2 -80.98,58.84" />
      <path
         inkscape:connector-curvature="0"
         id="path949"
         style="fill:#ffffff;fill-opacity:1;fill-rule:evenodd;stroke:none"
         d="m 6191.2,2579.04 h 125.12 l -101.22,-73.55 38.66,119.01 38.67,-119.01 -101.23,73.55 v 0" />
      <path
         inkscape:connector-curvature="0"
         id="path951"
         style="fill:none;stroke:#ffffff;stroke-width:10.01;stroke-linecap:round;stroke-linejoin:round;stroke-miterlimit:10;stroke-dasharray:none;stroke-opacity:1"
         d="m 6191.2,2579.04 h 125.12 l -101.22,-73.55 38.66,119.01 38.67,-119.01 -101.23,73.55" />
      <path
         inkscape:connector-curvature="0"
         id="path953"
         style="fill:#ffffff;fill-opacity:1;fill-rule:evenodd;stroke:none"
         d="m 5850.86,2508.97 h 100.1 l -80.98,-58.84 30.93,95.2 30.93,-95.2 -80.98,58.84 v 0" />
      <path
         inkscape:connector-curvature="0"
         id="path955"
         style="fill:none;stroke:#ffffff;stroke-width:10.01;stroke-linecap:round;stroke-linejoin:round;stroke-miterlimit:10;stroke-dasharray:none;stroke-opacity:1"
         d="m 5850.86,2508.97 h 100.1 l -80.98,-58.84 30.93,95.2 30.93,-95.2 -80.98,58.84" />
      <path
         inkscape:connector-curvature="0"
         id="path957"
         style="fill:#ffffff;fill-opacity:1;fill-rule:evenodd;stroke:none"
         d="m 4309.32,3449.91 h 125.13 l -101.23,-73.55 38.66,119 38.67,-119 -101.23,73.55 v 0" />
      <path
         inkscape:connector-curvature="0"
         id="path959"
         style="fill:none;stroke:#ffffff;stroke-width:10.01;stroke-linecap:round;stroke-linejoin:round;stroke-miterlimit:10;stroke-dasharray:none;stroke-opacity:1"
         d="m 4309.32,3449.91 h 125.13 l -101.23,-73.55 38.66,119 38.67,-119 -101.23,73.55" />
      <path
         inkscape:connector-curvature="0"
         id="path961"
         style="fill:#ffffff;fill-opacity:1;fill-rule:evenodd;stroke:none"
         d="m 5410.42,3590.05 h 100.1 l -80.98,-58.84 30.93,95.2 30.93,-95.2 -80.98,58.84 v 0" />
      <path
         inkscape:connector-curvature="0"
         id="path963"
         style="fill:none;stroke:#ffffff;stroke-width:10.01;stroke-linecap:round;stroke-linejoin:round;stroke-miterlimit:10;stroke-dasharray:none;stroke-opacity:1"
         d="m 5410.42,3590.05 h 100.1 l -80.98,-58.84 30.93,95.2 30.93,-95.2 -80.98,58.84" />
      <path
         inkscape:connector-curvature="0"
         id="path965"
         style="fill:#ffffff;fill-opacity:1;fill-rule:evenodd;stroke:none"
         d="m 4969.98,2699.16 h 150.15 l -121.47,-88.26 46.39,142.81 46.4,-142.81 -121.47,88.26 v 0" />
      <path
         inkscape:connector-curvature="0"
         id="path967"
         style="fill:none;stroke:#ffffff;stroke-width:10.01;stroke-linecap:round;stroke-linejoin:round;stroke-miterlimit:10;stroke-dasharray:none;stroke-opacity:1"
         d="m 4969.98,2699.16 h 150.15 l -121.47,-88.26 46.39,142.81 46.4,-142.81 -121.47,88.26" />
      <path
         inkscape:connector-curvature="0"
         id="path969"
         style="fill:#ffffff;fill-opacity:1;fill-rule:evenodd;stroke:none"
         d="m 5140.15,3079.54 h 125.12 l -101.22,-73.55 38.66,119.01 38.67,-119.01 -101.23,73.55 v 0" />
      <path
         inkscape:connector-curvature="0"
         id="path971"
         style="fill:none;stroke:#ffffff;stroke-width:10.01;stroke-linecap:round;stroke-linejoin:round;stroke-miterlimit:10;stroke-dasharray:none;stroke-opacity:1"
         d="m 5140.15,3079.54 h 125.12 l -101.22,-73.55 38.66,119.01 38.67,-119.01 -101.23,73.55" />
      <path
         inkscape:connector-curvature="0"
         id="path973"
         style="fill:#ffffff;fill-opacity:1;fill-rule:evenodd;stroke:none"
         d="m 4990,3229.69 h 125.13 l -101.23,-73.55 38.66,119 38.67,-119 -101.23,73.55 v 0" />
      <path
         inkscape:connector-curvature="0"
         id="path975"
         style="fill:none;stroke:#ffffff;stroke-width:10.01;stroke-linecap:round;stroke-linejoin:round;stroke-miterlimit:10;stroke-dasharray:none;stroke-opacity:1"
         d="m 4990,3229.69 h 125.13 l -101.23,-73.55 38.66,119 38.67,-119 -101.23,73.55" />
      <path
         inkscape:connector-curvature="0"
         id="path977"
         style="fill:#ffffff;fill-opacity:1;fill-rule:evenodd;stroke:none"
         d="m 4769.78,3059.52 h 100.1 l -80.98,-58.84 30.93,95.2 30.93,-95.2 -80.98,58.84" />
      <path
         inkscape:connector-curvature="0"
         id="path979"
         style="fill:none;stroke:#ffffff;stroke-width:10.01;stroke-linecap:round;stroke-linejoin:round;stroke-miterlimit:10;stroke-dasharray:none;stroke-opacity:1"
         d="m 4769.78,3059.52 h 100.1 l -80.98,-58.84 30.93,95.2 30.93,-95.2 -80.98,58.84" />
      <path
         inkscape:connector-curvature="0"
         id="path981"
         style="fill:#ffffff;fill-opacity:1;fill-rule:evenodd;stroke:none"
         d="m 4879.89,2949.41 h 70.07 l -56.69,-41.19 21.66,66.64 21.65,-66.64 -56.69,41.19" />
      <path
         inkscape:connector-curvature="0"
         id="path983"
         style="fill:none;stroke:#ffffff;stroke-width:10.01;stroke-linecap:round;stroke-linejoin:round;stroke-miterlimit:10;stroke-dasharray:none;stroke-opacity:1"
         d="m 4879.89,2949.41 h 70.07 l -56.69,-41.19 21.66,66.64 21.65,-66.64 -56.69,41.19" />
      <path
         inkscape:connector-curvature="0"
         id="path985"
         style="fill:#ffffff;fill-opacity:1;fill-rule:evenodd;stroke:none"
         d="m 5480.49,2298.76 h 125.13 l -101.23,-73.55 38.66,119 38.67,-119 -101.23,73.55 v 0" />
      <path
         inkscape:connector-curvature="0"
         id="path987"
         style="fill:none;stroke:#ffffff;stroke-width:10.01;stroke-linecap:round;stroke-linejoin:round;stroke-miterlimit:10;stroke-dasharray:none;stroke-opacity:1"
         d="m 5480.49,2298.76 h 125.13 l -101.23,-73.55 38.66,119 38.67,-119 -101.23,73.55" />
      <path
         inkscape:connector-curvature="0"
         id="path989"
         style="fill:#ffffff;fill-opacity:1;fill-rule:evenodd;stroke:none"
         d="m 5640.65,2468.93 h 100.1 l -80.98,-58.84 30.93,95.2 30.93,-95.2 -80.98,58.84 v 0" />
      <path
         inkscape:connector-curvature="0"
         id="path991"
         style="fill:none;stroke:#ffffff;stroke-width:10.01;stroke-linecap:round;stroke-linejoin:round;stroke-miterlimit:10;stroke-dasharray:none;stroke-opacity:1"
         d="m 5640.65,2468.93 h 100.1 l -80.98,-58.84 30.93,95.2 30.93,-95.2 -80.98,58.84" />
      <path
         inkscape:connector-curvature="0"
         id="path993"
         style="fill:#ffffff;fill-opacity:1;fill-rule:evenodd;stroke:none"
         d="m 5340.35,2508.97 h 100.1 l -80.98,-58.84 30.93,95.2 30.93,-95.2 -80.98,58.84 v 0" />
      <path
         inkscape:connector-curvature="0"
         id="path995"
         style="fill:none;stroke:#ffffff;stroke-width:10.01;stroke-linecap:round;stroke-linejoin:round;stroke-miterlimit:10;stroke-dasharray:none;stroke-opacity:1"
         d="m 5340.35,2508.97 h 100.1 l -80.98,-58.84 30.93,95.2 30.93,-95.2 -80.98,58.84" />
      <path
         inkscape:connector-curvature="0"
         id="path997"
         style="fill:#ffffff;fill-opacity:1;fill-rule:evenodd;stroke:none"
         d="m 4269.28,2549.01 h 150.15 l -121.47,-88.26 46.4,142.8 46.39,-142.8 -121.47,88.26" />
      <path
         inkscape:connector-curvature="0"
         id="path999"
         style="fill:none;stroke:#ffffff;stroke-width:10.01;stroke-linecap:round;stroke-linejoin:round;stroke-miterlimit:10;stroke-dasharray:none;stroke-opacity:1"
         d="m 4269.28,2549.01 h 150.15 l -121.47,-88.26 46.4,142.8 46.39,-142.8 -121.47,88.26" />
      <path
         inkscape:connector-curvature="0"
         id="path1001"
         style="fill:#ffffff;fill-opacity:1;fill-rule:evenodd;stroke:none"
         d="m 4949.96,2118.58 h 50.05 l -40.49,-29.42 15.46,47.6 15.47,-47.6 -40.49,29.42 v 0" />
      <path
         inkscape:connector-curvature="0"
         id="path1003"
         style="fill:none;stroke:#ffffff;stroke-width:10.01;stroke-linecap:round;stroke-linejoin:round;stroke-miterlimit:10;stroke-dasharray:none;stroke-opacity:1"
         d="m 4949.96,2118.58 h 50.05 l -40.49,-29.42 15.46,47.6 15.47,-47.6 -40.49,29.42" />
      <g
         transform="scale(10)"
         id="g1005">
        <text
           id="text1035"
           style="font-variant:normal;font-weight:normal;font-size:20.02px;font-family:Helvetica;-inkscape-font-specification:Helvetica;writing-mode:lr-tb;fill:#128d2c;fill-opacity:1;fill-rule:nonzero;stroke:none"
           transform="matrix(1,0,0,-1,352.073,395.401)"><tspan
             id="tspan1007"
             y="0"
             x="0">O</tspan><tspan
             id="tspan1009"
             y="-1.00117"
             x="19.5793">R</tspan><tspan
             id="tspan1011"
             sodipodi:role="line"
             y="-2.00195"
             x="38.5984 57.167149">DE</tspan><tspan
             id="tspan1013"
             y="0"
             x="73.523399">M</tspan><tspan
             id="tspan1015"
             y="4.0039101"
             x="112.2218">E</tspan><tspan
             id="tspan1017"
             y="11.01094"
             x="145.255">P</tspan><tspan
             id="tspan1019"
             y="18.017969"
             x="166.7265">R</tspan><tspan
             id="tspan1021"
             y="25.025"
             x="188.18781">O</tspan><tspan
             id="tspan1023"
             y="34.033981"
             x="210.2097">G</tspan><tspan
             id="tspan1025"
             y="44.044182"
             x="231.79131">R</tspan><tspan
             id="tspan1027"
             y="55.05508"
             x="251.36079">E</tspan><tspan
             id="tspan1029"
             y="67.06678"
             x="270.37991">S</tspan><tspan
             id="tspan1031"
             y="78.078079"
             x="287.3967">S</tspan><tspan
             id="tspan1033"
             y="92.091782"
             x="305.3049">O</tspan></text>
      </g>
    </g>
  </g>
</svg>
